<svg xmlns="http://www.w3.org/2000/svg" xmlns:xlink="http://www.w3.org/1999/xlink" width="1366" zoomAndPan="magnify" viewBox="0 0 1024.5 576" height="768" preserveAspectRatio="xMidYMid meet" version="1.0"><defs><g/></defs><g fill="#004aad" fill-opacity="1"><g transform="translate(65.478321, 367.487827)"><g><path d="M 193.515625 -158.515625 L 193.515625 0 L 154.890625 0 L 154.890625 -95.0625 L 119.453125 0 L 88.28125 0 L 52.609375 -95.28125 L 52.609375 0 L 14 0 L 14 -158.515625 L 59.609375 -158.515625 L 104.09375 -48.765625 L 148.125 -158.515625 Z M 193.515625 -158.515625 "/></g></g></g><g fill="#ffffff" fill-opacity="1"><g transform="translate(288.576465, 367.487827)"><g><path d="M 112.671875 -28 L 53.515625 -28 L 44.03125 0 L 3.609375 0 L 60.96875 -158.515625 L 105.671875 -158.515625 L 163.03125 0 L 122.15625 0 Z M 102.734375 -57.796875 L 83.09375 -115.828125 L 63.671875 -57.796875 Z M 102.734375 -57.796875 "/></g></g></g><g fill="#ffffff" fill-opacity="1"><g transform="translate(470.794602, 367.487827)"><g><path d="M 94.828125 0 L 61.875 -59.84375 L 52.609375 -59.84375 L 52.609375 0 L 14 0 L 14 -158.515625 L 78.796875 -158.515625 C 91.296875 -158.515625 101.945312 -156.328125 110.75 -151.953125 C 119.5625 -147.585938 126.148438 -141.601562 130.515625 -134 C 134.878906 -126.40625 137.0625 -117.941406 137.0625 -108.609375 C 137.0625 -98.066406 134.085938 -88.65625 128.140625 -80.375 C 122.191406 -72.101562 113.421875 -66.234375 101.828125 -62.765625 L 138.40625 0 Z M 52.609375 -87.15625 L 76.546875 -87.15625 C 83.617188 -87.15625 88.921875 -88.882812 92.453125 -92.34375 C 95.992188 -95.8125 97.765625 -100.707031 97.765625 -107.03125 C 97.765625 -113.050781 95.992188 -117.789062 92.453125 -121.25 C 88.921875 -124.71875 83.617188 -126.453125 76.546875 -126.453125 L 52.609375 -126.453125 Z M 52.609375 -87.15625 "/></g></g></g><g fill="#ffffff" fill-opacity="1"><g transform="translate(633.820015, 367.487827)"><g><path d="M 105.90625 0 L 52.609375 -70 L 52.609375 0 L 14 0 L 14 -158.515625 L 52.609375 -158.515625 L 52.609375 -88.96875 L 105.453125 -158.515625 L 150.828125 -158.515625 L 89.421875 -80.828125 L 153.09375 0 Z M 105.90625 0 "/></g></g></g><g fill="#ffffff" fill-opacity="1"><g transform="translate(807.00629, 367.487827)"><g><path d="M 149.921875 -158.515625 L 95.0625 -52.390625 L 95.0625 0 L 56.453125 0 L 56.453125 -52.390625 L 1.578125 -158.515625 L 45.390625 -158.515625 L 76.09375 -92.125 L 106.578125 -158.515625 Z M 149.921875 -158.515625 "/></g></g></g></svg>